<mxfile host="65bd71144e">
    <diagram id="VjwAIKKh7NJ7v66QsfQx" name="Page-1">
        <mxGraphModel dx="2587" dy="605" grid="1" gridSize="10" guides="1" tooltips="1" connect="1" arrows="1" fold="1" page="1" pageScale="1" pageWidth="850" pageHeight="1100" math="0" shadow="0">
            <root>
                <mxCell id="0"/>
                <mxCell id="1" parent="0"/>
                <mxCell id="4" style="edgeStyle=none;shape=link;html=1;entryX=0;entryY=0.5;entryDx=0;entryDy=0;" edge="1" parent="1" source="2" target="3">
                    <mxGeometry relative="1" as="geometry"/>
                </mxCell>
                <mxCell id="9" style="edgeStyle=none;shape=link;html=1;exitX=0.5;exitY=1;exitDx=0;exitDy=0;fontSize=16;" edge="1" parent="1" source="2" target="5">
                    <mxGeometry relative="1" as="geometry"/>
                </mxCell>
                <mxCell id="2" value="&lt;font style=&quot;font-size: 16px;&quot;&gt;Globex Edge Router - 2811&lt;br&gt;FE0/0: BGP 156.12.1.5/30&lt;br&gt;ASN50000&lt;br&gt;FE0/1 is the Globex Internal Gateway 192.168.100.1/24&lt;/font&gt;" style="image;html=1;image=img/lib/clip_art/networking/Router_Icon_128x128.png" vertex="1" parent="1">
                    <mxGeometry x="-680" y="190" width="80" height="80" as="geometry"/>
                </mxCell>
                <mxCell id="10" style="edgeStyle=none;shape=link;html=1;fontSize=16;" edge="1" parent="1" source="3" target="6">
                    <mxGeometry relative="1" as="geometry"/>
                </mxCell>
                <mxCell id="3" value="&lt;font style=&quot;font-size: 16px;&quot;&gt;Cloud Edge Router - 2811&lt;br&gt;ASN50001&lt;br&gt;FE0/0: BGP 156.12.1.6/30&lt;br&gt;FE0/1 is the Cloud hosting Gateway 192.168.200.1/24&lt;br&gt;&lt;/font&gt;" style="image;html=1;image=img/lib/clip_art/networking/Router_Icon_128x128.png" vertex="1" parent="1">
                    <mxGeometry x="-240" y="190" width="80" height="80" as="geometry"/>
                </mxCell>
                <mxCell id="12" style="edgeStyle=none;shape=link;html=1;fontSize=16;fontColor=#CCCCCC;" edge="1" parent="1" source="5" target="11">
                    <mxGeometry relative="1" as="geometry"/>
                </mxCell>
                <mxCell id="5" value="Switch 0 - 2960&lt;br&gt;Globex&lt;br&gt;FE0/1 to router FE0/1&lt;br&gt;FE0/2 to host FE0/0" style="image;html=1;image=img/lib/clip_art/networking/Switch_128x128.png;fontSize=16;" vertex="1" parent="1">
                    <mxGeometry x="-680" y="440" width="80" height="80" as="geometry"/>
                </mxCell>
                <mxCell id="14" style="edgeStyle=none;shape=link;html=1;fontSize=16;fontColor=#CCCCCC;" edge="1" parent="1" source="6" target="13">
                    <mxGeometry relative="1" as="geometry"/>
                </mxCell>
                <mxCell id="6" value="Switch 1 - 2960&lt;br&gt;Cloud&lt;br&gt;FE0/1 to router FE0/1&lt;br&gt;FE0/2 to server FE0/1" style="image;html=1;image=img/lib/clip_art/networking/Switch_128x128.png;fontSize=16;" vertex="1" parent="1">
                    <mxGeometry x="-240" y="440" width="80" height="80" as="geometry"/>
                </mxCell>
                <mxCell id="11" value="&lt;font color=&quot;#cccccc&quot;&gt;PC0 - Globex&lt;br&gt;FE0/0 to switch0 FE0/1&lt;br&gt;192.168.100.2/24 via Globex Router Gateway&lt;br&gt;&lt;/font&gt;" style="fontColor=#0066CC;verticalAlign=top;verticalLabelPosition=bottom;labelPosition=center;align=center;html=1;outlineConnect=0;fillColor=#CCCCCC;strokeColor=#6881B3;gradientColor=none;gradientDirection=north;strokeWidth=2;shape=mxgraph.networks.pc;fontSize=16;" vertex="1" parent="1">
                    <mxGeometry x="-690" y="720" width="100" height="70" as="geometry"/>
                </mxCell>
                <mxCell id="13" value="Server0&lt;br&gt;Cloud Server&lt;br&gt;FE0/0 to switch1 FE0/1&lt;br&gt;192.168.200.2/24 via Cloud Router Gateway" style="aspect=fixed;perimeter=ellipsePerimeter;html=1;align=center;shadow=0;dashed=0;spacingTop=3;image;image=img/lib/active_directory/generic_server.svg;fontSize=16;fontColor=#CCCCCC;" vertex="1" parent="1">
                    <mxGeometry x="-228.5" y="704.11" width="57" height="101.78" as="geometry"/>
                </mxCell>
            </root>
        </mxGraphModel>
    </diagram>
</mxfile>